{
  "accessors": [
    {
      "bufferView": 2,
      "componentType": 5126,
      "count": 1254,
      "max": [
        5.343697547912598,
        0.3539699614048004,
        1.2270222902297974
      ],
      "min": [
        -1.4149502515792847,
        -0.5891233682632446,
        -1.2270222902297974
      ],
      "type": "VEC3"
    },
    {
      "bufferView": 2,
      "byteOffset": 15048,
      "componentType": 5126,
      "count": 1254,
      "max": [
        0.9997059106826782,
        1.0,
        1.0
      ],
      "min": [
        -0.8640374541282654,
        -1.0,
        -1.0
      ],
      "type": "VEC3"
    },
    {
      "bufferView": 1,
      "componentType": 5126,
      "count": 1254,
      "max": [
        1.0,
        0.5
      ],
      "min": [
        0.0,
        0.0
      ],
      "type": "VEC2"
    },
    {
      "bufferView": 0,
      "componentType": 5125,
      "count": 2208,
      "type": "SCALAR"
    },
    {
      "bufferView": 2,
      "byteOffset": 30096,
      "componentType": 5126,
      "count": 984,
      "max": [
        5.426470756530762,
        0.3511110544204712,
        1.3306323289871216
      ],
      "min": [
        -1.4149502515792847,
        -0.5891233682632446,
        -1.3306323289871216
      ],
      "type": "VEC3"
    },
    {
      "bufferView": 2,
      "byteOffset": 41904,
      "componentType": 5126,
      "count": 984,
      "max": [
        0.769245445728302,
        1.0,
        1.0
      ],
      "min": [
        -0.8530203104019165,
        -1.0,
        -1.0
      ],
      "type": "VEC3"
    },
    {
      "bufferView": 1,
      "byteOffset": 10032,
      "componentType": 5126,
      "count": 984,
      "max": [
        1.0,
        0.5
      ],
      "min": [
        0.0,
        -1.266508570552105e-05
      ],
      "type": "VEC2"
    },
    {
      "bufferView": 0,
      "byteOffset": 8832,
      "componentType": 5125,
      "count": 1710,
      "type": "SCALAR"
    },
    {
      "bufferView": 2,
      "byteOffset": 53712,
      "componentType": 5126,
      "count": 33,
      "max": [
        -0.7759931683540344,
        -0.018403232097625732,
        0.9285025596618652
      ],
      "min": [
        -1.2915147542953491,
        -0.16419720649719238,
        -0.9285025596618652
      ],
      "type": "VEC3"
    },
    {
      "bufferView": 2,
      "byteOffset": 54108,
      "componentType": 5126,
      "count": 33,
      "max": [
        -0.4126260280609131,
        0.8942329287528992,
        0.1734573096036911
      ],
      "min": [
        -0.41262638568878174,
        0.8942327499389648,
        -0.1734570860862732
      ],
      "type": "VEC3"
    },
    {
      "bufferView": 1,
      "byteOffset": 17904,
      "componentType": 5126,
      "count": 33,
      "max": [
        0.2457069754600525,
        0.156321182847023
      ],
      "min": [
        0.01732378825545311,
        0.02824038825929165
      ],
      "type": "VEC2"
    },
    {
      "bufferView": 0,
      "byteOffset": 15672,
      "componentType": 5125,
      "count": 87,
      "type": "SCALAR"
    },
    {
      "bufferView": 2,
      "byteOffset": 54504,
      "componentType": 5126,
      "count": 136,
      "max": [
        3.3789923191070557,
        -0.03556523844599724,
        0.8983252048492432
      ],
      "min": [
        -1.2074941396713257,
        -0.5891233682632446,
        -0.8983252048492432
      ],
      "type": "VEC3"
    },
    {
      "bufferView": 2,
      "byteOffset": 56136,
      "componentType": 5126,
      "count": 136,
      "max": [
        1.0182275218539871e-05,
        0.8482270836830139,
        0.5818917155265808
      ],
      "min": [
        -0.25250592827796936,
        -1.0,
        -0.5818917155265808
      ],
      "type": "VEC3"
    },
    {
      "bufferView": 1,
      "byteOffset": 18168,
      "componentType": 5126,
      "count": 136,
      "max": [
        0.20306013524532318,
        0.27135851979255676
      ],
      "min": [
        0.0,
        0.046716876327991486
      ],
      "type": "VEC2"
    },
    {
      "bufferView": 0,
      "byteOffset": 16020,
      "componentType": 5125,
      "count": 204,
      "type": "SCALAR"
    },
    {
      "bufferView": 2,
      "byteOffset": 57768,
      "componentType": 5126,
      "count": 98,
      "max": [
        4.691513538360596,
        0.2533510625362396,
        1.1072510480880737
      ],
      "min": [
        1.0657927989959717,
        -0.5595187544822693,
        -1.1072510480880737
      ],
      "type": "VEC3"
    },
    {
      "bufferView": 2,
      "byteOffset": 58944,
      "componentType": 5126,
      "count": 98,
      "max": [
        0.4247351586818695,
        0.9991865754127502,
        1.0
      ],
      "min": [
        -0.6109805703163147,
        -0.984910249710083,
        -1.0
      ],
      "type": "VEC3"
    },
    {
      "bufferView": 1,
      "byteOffset": 19256,
      "componentType": 5126,
      "count": 98,
      "max": [
        1.0000001192092896,
        0.5
      ],
      "min": [
        0.0,
        0.0
      ],
      "type": "VEC2"
    },
    {
      "bufferView": 0,
      "byteOffset": 16836,
      "componentType": 5125,
      "count": 156,
      "type": "SCALAR"
    },
    {
      "bufferView": 2,
      "byteOffset": 60120,
      "componentType": 5126,
      "count": 150,
      "max": [
        4.691513538360596,
        0.28376343846321106,
        1.1072509288787842
      ],
      "min": [
        1.0657929182052612,
        -0.5595187544822693,
        -1.1072509288787842
      ],
      "type": "VEC3"
    },
    {
      "bufferView": 2,
      "byteOffset": 61920,
      "componentType": 5126,
      "count": 150,
      "max": [
        0.9992062449455261,
        0.9995313286781311,
        1.0
      ],
      "min": [
        -0.2798919379711151,
        0.0,
        -0.9058935642242432
      ],
      "type": "VEC3"
    },
    {
      "bufferView": 1,
      "byteOffset": 20040,
      "componentType": 5126,
      "count": 150,
      "max": [
        1.0000001192092896,
        0.5
      ],
      "min": [
        0.0,
        0.0
      ],
      "type": "VEC2"
    },
    {
      "bufferView": 0,
      "byteOffset": 17460,
      "componentType": 5125,
      "count": 264,
      "type": "SCALAR"
    },
    {
      "bufferView": 2,
      "byteOffset": 63720,
      "componentType": 5126,
      "count": 16,
      "max": [
        1.2068350315093994,
        -0.0355355441570282,
        1.0946425199508667
      ],
      "min": [
        1.2042664289474487,
        -0.5575590133666992,
        -1.0946425199508667
      ],
      "type": "VEC3"
    },
    {
      "bufferView": 2,
      "byteOffset": 63912,
      "componentType": 5126,
      "count": 16,
      "max": [
        0.6034576296806335,
        0.9227257370948792,
        0.7973867654800415
      ],
      "min": [
        -0.38545745611190796,
        0.003648008219897747,
        -0.7973867654800415
      ],
      "type": "VEC3"
    },
    {
      "bufferView": 1,
      "byteOffset": 21240,
      "componentType": 5126,
      "count": 16,
      "max": [
        1.0,
        0.5
      ],
      "min": [
        1.0,
        0.0
      ],
      "type": "VEC2"
    },
    {
      "bufferView": 0,
      "byteOffset": 18516,
      "componentType": 5125,
      "count": 24,
      "type": "SCALAR"
    },
    {
      "bufferView": 2,
      "byteOffset": 64104,
      "componentType": 5126,
      "count": 226,
      "max": [
        2.4831230640411377,
        0.46852222084999084,
        1.0943324565887451
      ],
      "min": [
        -0.273308664560318,
        -0.19562344253063202,
        -1.0943324565887451
      ],
      "type": "VEC3"
    },
    {
      "bufferView": 2,
      "byteOffset": 66816,
      "componentType": 5126,
      "count": 226,
      "max": [
        0.9993615746498108,
        1.0,
        1.0
      ],
      "min": [
        -0.87012779712677,
        -1.0,
        -1.0
      ],
      "type": "VEC3"
    },
    {
      "bufferView": 1,
      "byteOffset": 21368,
      "componentType": 5126,
      "count": 226,
      "max": [
        1.0000001192092896,
        0.5
      ],
      "min": [
        1.0,
        0.0
      ],
      "type": "VEC2"
    },
    {
      "bufferView": 0,
      "byteOffset": 18612,
      "componentType": 5125,
      "count": 348,
      "type": "SCALAR"
    },
    {
      "bufferView": 2,
      "byteOffset": 69528,
      "componentType": 5126,
      "count": 6,
      "max": [
        0.9743829965591431,
        0.11355658620595932,
        0.617978572845459
      ],
      "min": [
        0.5734429359436035,
        -0.05720045417547226,
        -0.617978572845459
      ],
      "type": "VEC3"
    },
    {
      "bufferView": 2,
      "byteOffset": 69600,
      "componentType": 5126,
      "count": 6,
      "max": [
        0.39183545112609863,
        -0.9200354218482971,
        -0.0
      ],
      "min": [
        0.39183545112609863,
        -0.9200354218482971,
        -0.0
      ],
      "type": "VEC3"
    },
    {
      "bufferView": 1,
      "byteOffset": 23176,
      "componentType": 5126,
      "count": 6,
      "max": [
        1.0,
        0.5
      ],
      "min": [
        1.0,
        0.21764586865901947
      ],
      "type": "VEC2"
    },
    {
      "bufferView": 0,
      "byteOffset": 20004,
      "componentType": 5125,
      "count": 12,
      "type": "SCALAR"
    },
    {
      "bufferView": 2,
      "byteOffset": 69672,
      "componentType": 5126,
      "count": 336,
      "max": [
        5.194958686828613,
        0.15585458278656006,
        0.8432430624961853
      ],
      "min": [
        4.972727298736572,
        -0.08196324110031128,
        -0.8432430624961853
      ],
      "type": "VEC3"
    },
    {
      "bufferView": 2,
      "byteOffset": 73704,
      "componentType": 5126,
      "count": 336,
      "max": [
        0.9999954700469971,
        0.99994957447052,
        1.0
      ],
      "min": [
        -0.9738122224807739,
        -0.9999613165855408,
        -1.0
      ],
      "type": "VEC3"
    },
    {
      "bufferView": 1,
      "byteOffset": 23224,
      "componentType": 5126,
      "count": 336,
      "max": [
        0.10236270725727081,
        0.27253538370132446
      ],
      "min": [
        0.0,
        0.23044320940971375
      ],
      "type": "VEC2"
    },
    {
      "bufferView": 0,
      "byteOffset": 20052,
      "componentType": 5125,
      "count": 504,
      "type": "SCALAR"
    },
    {
      "bufferView": 2,
      "byteOffset": 77736,
      "componentType": 5126,
      "count": 232,
      "max": [
        1.4194172620773315,
        -0.046235792338848114,
        1.244143009185791
      ],
      "min": [
        1.260859489440918,
        -0.12687909603118896,
        -1.244143009185791
      ],
      "type": "VEC3"
    },
    {
      "bufferView": 2,
      "byteOffset": 80520,
      "componentType": 5126,
      "count": 232,
      "max": [
        0.9747876524925232,
        1.0,
        0.9037337899208069
      ],
      "min": [
        -0.4720735251903534,
        -1.0,
        -0.9037337899208069
      ],
      "type": "VEC3"
    },
    {
      "bufferView": 1,
      "byteOffset": 25912,
      "componentType": 5126,
      "count": 232,
      "max": [
        0.875,
        0.7500000596046448
      ],
      "min": [
        0.1249999850988388,
        0.25
      ],
      "type": "VEC2"
    },
    {
      "bufferView": 0,
      "byteOffset": 22068,
      "componentType": 5125,
      "count": 348,
      "type": "SCALAR"
    },
    {
      "bufferView": 2,
      "byteOffset": 83304,
      "componentType": 5126,
      "count": 56,
      "max": [
        1.4194172620773315,
        -0.046235792338848114,
        1.244143009185791
      ],
      "min": [
        1.260859489440918,
        -0.12687909603118896,
        -1.244143009185791
      ],
      "type": "VEC3"
    },
    {
      "bufferView": 2,
      "byteOffset": 83976,
      "componentType": 5126,
      "count": 56,
      "max": [
        -0.353403776884079,
        0.0844675600528717,
        0.9354709386825562
      ],
      "min": [
        -0.9480291604995728,
        -0.05002409964799881,
        -0.9354709386825562
      ],
      "type": "VEC3"
    },
    {
      "bufferView": 1,
      "byteOffset": 27768,
      "componentType": 5126,
      "count": 56,
      "max": [
        0.625,
        1.0
      ],
      "min": [
        0.375,
        0.0
      ],
      "type": "VEC2"
    },
    {
      "bufferView": 0,
      "byteOffset": 23460,
      "componentType": 5125,
      "count": 84,
      "type": "SCALAR"
    }
  ],
  "asset": {
    "extras": {
      "author": "DEDROX (https://sketchfab.com/Raghavprasanna)",
      "license": "CC-BY-4.0 (http://creativecommons.org/licenses/by/4.0/)",
      "source": "https://sketchfab.com/3d-models/blnk-100-concept-hovering-car-2a61db68f0b14185ba690d2e22dd037c",
      "title": "blnk-100 concept hovering car"
    },
    "generator": "Sketchfab-12.67.0",
    "version": "2.0"
  },
  "bufferViews": [
    {
      "buffer": 0,
      "byteLength": 23796,
      "name": "floatBufferViews",
      "target": 34963
    },
    {
      "buffer": 0,
      "byteLength": 28216,
      "byteOffset": 23796,
      "byteStride": 8,
      "name": "floatBufferViews",
      "target": 34962
    },
    {
      "buffer": 0,
      "byteLength": 84648,
      "byteOffset": 52012,
      "byteStride": 12,
      "name": "floatBufferViews",
      "target": 34962
    }
  ],
  "buffers": [
    {
      "byteLength": 136660,
      "uri": "scene.bin"
    }
  ],
  "materials": [
    {
      "doubleSided": true,
      "name": "Material",
      "pbrMetallicRoughness": {
        "baseColorFactor": [
          0.6291131388777057,
          0.08407290387534505,
          0.8482712485824304,
          1.0
        ],
        "roughnessFactor": 0.224771
      }
    },
    {
      "doubleSided": true,
      "name": "Material.001",
      "pbrMetallicRoughness": {
        "baseColorFactor": [
          0.349327,
          0.349327,
          0.349327,
          1.0
        ],
        "roughnessFactor": 0.0745014113
      }
    },
    {
      "doubleSided": true,
      "emissiveFactor": [
        1.0,
        0.59602764115503,
        0.0
      ],
      "name": "Material.002",
      "pbrMetallicRoughness": {
        "baseColorFactor": [
          0.0,
          0.0,
          0.0,
          1.0
        ]
      }
    },
    {
      "doubleSided": true,
      "emissiveFactor": [
        1.0,
        1.0,
        1.0
      ],
      "name": "Material.003",
      "pbrMetallicRoughness": {
        "baseColorFactor": [
          0.0,
          0.0,
          0.0,
          1.0
        ],
        "metallicFactor": 0.0
      }
    }
  ],
  "meshes": [
    {
      "name": "Object_0",
      "primitives": [
        {
          "attributes": {
            "NORMAL": 1,
            "POSITION": 0,
            "TEXCOORD_0": 2
          },
          "indices": 3,
          "material": 0,
          "mode": 4
        }
      ]
    },
    {
      "name": "Object_1",
      "primitives": [
        {
          "attributes": {
            "NORMAL": 5,
            "POSITION": 4,
            "TEXCOORD_0": 6
          },
          "indices": 7,
          "material": 1,
          "mode": 4
        }
      ]
    },
    {
      "name": "Object_2",
      "primitives": [
        {
          "attributes": {
            "NORMAL": 9,
            "POSITION": 8,
            "TEXCOORD_0": 10
          },
          "indices": 11,
          "material": 2,
          "mode": 4
        }
      ]
    },
    {
      "name": "Object_3",
      "primitives": [
        {
          "attributes": {
            "NORMAL": 13,
            "POSITION": 12,
            "TEXCOORD_0": 14
          },
          "indices": 15,
          "material": 3,
          "mode": 4
        }
      ]
    },
    {
      "name": "Object_4",
      "primitives": [
        {
          "attributes": {
            "NORMAL": 17,
            "POSITION": 16,
            "TEXCOORD_0": 18
          },
          "indices": 19,
          "material": 1,
          "mode": 4
        }
      ]
    },
    {
      "name": "Object_5",
      "primitives": [
        {
          "attributes": {
            "NORMAL": 21,
            "POSITION": 20,
            "TEXCOORD_0": 22
          },
          "indices": 23,
          "material": 0,
          "mode": 4
        }
      ]
    },
    {
      "name": "Object_6",
      "primitives": [
        {
          "attributes": {
            "NORMAL": 25,
            "POSITION": 24,
            "TEXCOORD_0": 26
          },
          "indices": 27,
          "material": 3,
          "mode": 4
        }
      ]
    },
    {
      "name": "Object_7",
      "primitives": [
        {
          "attributes": {
            "NORMAL": 29,
            "POSITION": 28,
            "TEXCOORD_0": 30
          },
          "indices": 31,
          "material": 1,
          "mode": 4
        }
      ]
    },
    {
      "name": "Object_8",
      "primitives": [
        {
          "attributes": {
            "NORMAL": 33,
            "POSITION": 32,
            "TEXCOORD_0": 34
          },
          "indices": 35,
          "material": 3,
          "mode": 4
        }
      ]
    },
    {
      "name": "Object_9",
      "primitives": [
        {
          "attributes": {
            "NORMAL": 37,
            "POSITION": 36,
            "TEXCOORD_0": 38
          },
          "indices": 39,
          "material": 2,
          "mode": 4
        }
      ]
    },
    {
      "name": "Object_10",
      "primitives": [
        {
          "attributes": {
            "NORMAL": 41,
            "POSITION": 40,
            "TEXCOORD_0": 42
          },
          "indices": 43,
          "material": 1,
          "mode": 4
        }
      ]
    },
    {
      "name": "Object_11",
      "primitives": [
        {
          "attributes": {
            "NORMAL": 45,
            "POSITION": 44,
            "TEXCOORD_0": 46
          },
          "indices": 47,
          "material": 0,
          "mode": 4
        }
      ]
    }
  ],
  "nodes": [
    {
      "children": [
        1
      ],
      "matrix": [
        1.0,
        0.0,
        0.0,
        0.0,
        0.0,
        2.220446049250313e-16,
        -1.0,
        0.0,
        0.0,
        1.0,
        2.220446049250313e-16,
        0.0,
        0.0,
        0.0,
        0.0,
        1.0
      ],
      "name": "Sketchfab_model"
    },
    {
      "children": [
        2
      ],
      "name": "root"
    },
    {
      "children": [
        3,
        8,
        12,
        15,
        17
      ],
      "matrix": [
        1.0,
        0.0,
        0.0,
        0.0,
        0.0,
        2.220446049250313e-16,
        1.0,
        0.0,
        0.0,
        -1.0,
        2.220446049250313e-16,
        0.0,
        0.0,
        0.0,
        0.0,
        1.0
      ],
      "name": "GLTF_SceneRootNode"
    },
    {
      "children": [
        4,
        5,
        6,
        7
      ],
      "matrix": [
        1.715474247932434,
        0.0,
        0.0,
        0.0,
        0.0,
        2.264171838760376,
        0.0,
        0.0,
        0.0,
        0.0,
        2.264171838760376,
        0.0,
        0.0,
        0.932395875453949,
        0.0,
        1.0
      ],
      "name": "Plane_2"
    },
    {
      "mesh": 0,
      "name": "Object_4"
    },
    {
      "mesh": 1,
      "name": "Object_5"
    },
    {
      "mesh": 2,
      "name": "Object_6"
    },
    {
      "mesh": 3,
      "name": "Object_7"
    },
    {
      "children": [
        9,
        10,
        11
      ],
      "matrix": [
        1.710821270942688,
        0.0,
        0.0,
        0.0,
        0.0,
        2.264171838760376,
        0.0,
        0.0,
        0.0,
        0.0,
        2.264171838760376,
        0.0,
        0.0,
        1.8025145530700684,
        0.0,
        1.0
      ],
      "name": "Plane.001_3"
    },
    {
      "mesh": 4,
      "name": "Object_9"
    },
    {
      "mesh": 5,
      "name": "Object_10"
    },
    {
      "mesh": 6,
      "name": "Object_11"
    },
    {
      "children": [
        13,
        14
      ],
      "matrix": [
        3.7325963973999023,
        0.0,
        0.0,
        0.0,
        0.0,
        2.0912697315216064,
        0.0,
        0.0,
        0.0,
        0.0,
        2.0148839950561523,
        0.0,
        -1.6227205991744995,
        0.13362336158752441,
        0.0,
        1.0
      ],
      "name": "Plane.002_4"
    },
    {
      "mesh": 7,
      "name": "Object_13"
    },
    {
      "mesh": 8,
      "name": "Object_14"
    },
    {
      "children": [
        16
      ],
      "matrix": [
        1.715474247932434,
        0.0,
        0.0,
        0.0,
        0.0,
        2.420588970184326,
        0.0,
        0.0,
        0.0,
        0.0,
        2.264171838760376,
        0.0,
        0.13029813766479492,
        0.932395875453949,
        0.0,
        1.0
      ],
      "name": "Plane.004_9"
    },
    {
      "mesh": 9,
      "name": "Object_16"
    },
    {
      "children": [
        18,
        19
      ],
      "matrix": [
        1.710821270942688,
        0.0,
        0.0,
        0.0,
        0.0,
        1.4704668521881104,
        0.0,
        0.0,
        0.0,
        0.0,
        2.264171838760376,
        0.0,
        0.0,
        1.8025145530700684,
        0.0,
        1.0
      ],
      "name": "Plane.003_10"
    },
    {
      "mesh": 10,
      "name": "Object_18"
    },
    {
      "mesh": 11,
      "name": "Object_19"
    }
  ],
  "scene": 0,
  "scenes": [
    {
      "name": "Sketchfab_Scene",
      "nodes": [
        0
      ]
    }
  ]
}
