{
  "accessors": [
    {
      "bufferView": 2,
      "componentType": 5126,
      "count": 2689,
      "max": [
        1.1037204265594482,
        0.6557663679122925,
        1.8171817064285278
      ],
      "min": [
        -1.1037204265594482,
        -0.5180438756942749,
        -2.0966224670410156
      ],
      "type": "VEC3"
    },
    {
      "bufferView": 2,
      "byteOffset": 32268,
      "componentType": 5126,
      "count": 2689,
      "max": [
        1.0,
        0.9996976256370544,
        0.9996976256370544
      ],
      "min": [
        -1.0,
        -1.0,
        -0.9998164772987366
      ],
      "type": "VEC3"
    },
    {
      "bufferView": 1,
      "componentType": 5126,
      "count": 2689,
      "max": [
        0.7500000596046448,
        0.875
      ],
      "min": [
        0.0,
        0.0
      ],
      "type": "VEC2"
    },
    {
      "bufferView": 0,
      "componentType": 5125,
      "count": 4248,
      "type": "SCALAR"
    },
    {
      "bufferView": 2,
      "byteOffset": 64536,
      "componentType": 5126,
      "count": 8,
      "max": [
        0.8503226041793823,
        0.09842029958963394,
        -1.6509158611297607
      ],
      "min": [
        -0.8503226041793823,
        -0.06647064536809921,
        -1.946984052658081
      ],
      "type": "VEC3"
    },
    {
      "bufferView": 2,
      "byteOffset": 64632,
      "componentType": 5126,
      "count": 8,
      "max": [
        0.3792910873889923,
        0.39314475655555725,
        -0.8376010060310364
      ],
      "min": [
        -0.3792910873889923,
        0.39314475655555725,
        -0.8376010060310364
      ],
      "type": "VEC3"
    },
    {
      "bufferView": 1,
      "byteOffset": 21512,
      "componentType": 5126,
      "count": 8,
      "max": [
        0.6198855042457581,
        0.5000000596046448
      ],
      "min": [
        0.5583147406578064,
        0.4999999701976776
      ],
      "type": "VEC2"
    },
    {
      "bufferView": 0,
      "byteOffset": 16992,
      "componentType": 5125,
      "count": 12,
      "type": "SCALAR"
    },
    {
      "bufferView": 2,
      "byteOffset": 64728,
      "componentType": 5126,
      "count": 990,
      "max": [
        1.1426608562469482,
        0.33230775594711304,
        1.3209118843078613
      ],
      "min": [
        -1.1426608562469482,
        -0.5862724184989929,
        -1.7440381050109863
      ],
      "type": "VEC3"
    },
    {
      "bufferView": 2,
      "byteOffset": 76608,
      "componentType": 5126,
      "count": 990,
      "max": [
        1.0,
        0.9807851314544678,
        0.9942057728767395
      ],
      "min": [
        -1.0,
        -0.9807852506637573,
        -0.9936282634735107
      ],
      "type": "VEC3"
    },
    {
      "bufferView": 1,
      "byteOffset": 21576,
      "componentType": 5126,
      "count": 990,
      "max": [
        0.6250000596046448,
        0.7500000596046448
      ],
      "min": [
        0.0,
        0.0
      ],
      "type": "VEC2"
    },
    {
      "bufferView": 0,
      "byteOffset": 17040,
      "componentType": 5125,
      "count": 1548,
      "type": "SCALAR"
    },
    {
      "bufferView": 2,
      "byteOffset": 88488,
      "componentType": 5126,
      "count": 1652,
      "max": [
        0.9317602515220642,
        -0.03504084050655365,
        1.2059050798416138
      ],
      "min": [
        -0.9317602515220642,
        -0.5180438756942749,
        -1.6601651906967163
      ],
      "type": "VEC3"
    },
    {
      "bufferView": 2,
      "byteOffset": 108312,
      "componentType": 5126,
      "count": 1652,
      "max": [
        1.0,
        1.0,
        1.0
      ],
      "min": [
        -1.0,
        -1.0,
        -1.0
      ],
      "type": "VEC3"
    },
    {
      "bufferView": 1,
      "byteOffset": 29496,
      "componentType": 5126,
      "count": 1652,
      "max": [
        0.0,
        0.0
      ],
      "min": [
        0.0,
        0.0
      ],
      "type": "VEC2"
    },
    {
      "bufferView": 0,
      "byteOffset": 23232,
      "componentType": 5125,
      "count": 2592,
      "type": "SCALAR"
    },
    {
      "bufferView": 2,
      "byteOffset": 128136,
      "componentType": 5126,
      "count": 100,
      "max": [
        1.1426608562469482,
        0.613791286945343,
        1.303034782409668
      ],
      "min": [
        -1.1426608562469482,
        0.1660279929637909,
        -0.9017321467399597
      ],
      "type": "VEC3"
    },
    {
      "bufferView": 2,
      "byteOffset": 129336,
      "componentType": 5126,
      "count": 100,
      "max": [
        0.8734596371650696,
        0.9604787230491638,
        0.850315511226654
      ],
      "min": [
        -0.8734596371650696,
        0.37872523069381714,
        -0.4266909658908844
      ],
      "type": "VEC3"
    },
    {
      "bufferView": 1,
      "byteOffset": 42712,
      "componentType": 5126,
      "count": 100,
      "max": [
        0.75,
        0.7500001192092896
      ],
      "min": [
        0.6249999403953552,
        0.75
      ],
      "type": "VEC2"
    },
    {
      "bufferView": 0,
      "byteOffset": 33600,
      "componentType": 5125,
      "count": 180,
      "type": "SCALAR"
    },
    {
      "bufferView": 2,
      "byteOffset": 130536,
      "componentType": 5126,
      "count": 48,
      "max": [
        0.8135730624198914,
        0.07514682412147522,
        -1.8792320489883423
      ],
      "min": [
        -0.8135730624198914,
        -0.403228759765625,
        -2.064047336578369
      ],
      "type": "VEC3"
    },
    {
      "bufferView": 2,
      "byteOffset": 131112,
      "componentType": 5126,
      "count": 48,
      "max": [
        0.7261385321617126,
        0.6540393829345703,
        0.21202702820301056
      ],
      "min": [
        -0.7261385321617126,
        0.1496567726135254,
        -0.9832702875137329
      ],
      "type": "VEC3"
    },
    {
      "bufferView": 1,
      "byteOffset": 43512,
      "componentType": 5126,
      "count": 48,
      "max": [
        0.6132664084434509,
        0.5
      ],
      "min": [
        0.3749999701976776,
        0.375
      ],
      "type": "VEC2"
    },
    {
      "bufferView": 0,
      "byteOffset": 34320,
      "componentType": 5125,
      "count": 72,
      "type": "SCALAR"
    },
    {
      "bufferView": 2,
      "byteOffset": 131688,
      "componentType": 5126,
      "count": 16,
      "max": [
        0.717871904373169,
        0.0584367960691452,
        1.7302885055541992
      ],
      "min": [
        -0.717871904373169,
        -0.08132737874984741,
        1.7023810148239136
      ],
      "type": "VEC3"
    },
    {
      "bufferView": 2,
      "byteOffset": 131880,
      "componentType": 5126,
      "count": 16,
      "max": [
        0.10107317566871643,
        -0.02446712553501129,
        0.9996976256370544
      ],
      "min": [
        -0.10107317566871643,
        -0.02459307201206684,
        0.9945781230926514
      ],
      "type": "VEC3"
    },
    {
      "bufferView": 1,
      "byteOffset": 43896,
      "componentType": 5126,
      "count": 16,
      "max": [
        0.541387677192688,
        0.8033074140548706
      ],
      "min": [
        0.44410547614097595,
        0.75
      ],
      "type": "VEC2"
    },
    {
      "bufferView": 0,
      "byteOffset": 34608,
      "componentType": 5125,
      "count": 24,
      "type": "SCALAR"
    }
  ],
  "asset": {
    "extras": {
      "author": "AAH-M_D (https://sketchfab.com/AAHMAD)",
      "license": "CC-BY-4.0 (http://creativecommons.org/licenses/by/4.0/)",
      "source": "https://sketchfab.com/3d-models/low-poly-car-6d5b1145b4fd475094be9e152d4aeff8",
      "title": "Low Poly Car"
    },
    "generator": "Sketchfab-12.66.0",
    "version": "2.0"
  },
  "bufferViews": [
    {
      "buffer": 0,
      "byteLength": 34704,
      "name": "floatBufferViews",
      "target": 34963
    },
    {
      "buffer": 0,
      "byteLength": 44024,
      "byteOffset": 34704,
      "byteStride": 8,
      "name": "floatBufferViews",
      "target": 34962
    },
    {
      "buffer": 0,
      "byteLength": 132072,
      "byteOffset": 78728,
      "byteStride": 12,
      "name": "floatBufferViews",
      "target": 34962
    }
  ],
  "buffers": [
    {
      "byteLength": 210800,
      "uri": "scene.bin"
    }
  ],
  "materials": [
    {
      "doubleSided": true,
      "name": "Material",
      "pbrMetallicRoughness": {
        "baseColorFactor": [
          0.8,
          0.0,
          0.00291068,
          1.0
        ],
        "metallicFactor": 0.0,
        "roughnessFactor": 0.4
      }
    },
    {
      "doubleSided": true,
      "emissiveFactor": [
        0.383124,
        0.988422,
        1.0
      ],
      "name": "Material.002"
    },
    {
      "doubleSided": true,
      "name": "Material.003",
      "pbrMetallicRoughness": {
        "baseColorFactor": [
          0.0341118,
          0.0341118,
          0.0341118,
          1.0
        ],
        "metallicFactor": 0.0,
        "roughnessFactor": 0.73622
      }
    },
    {
      "doubleSided": true,
      "name": "Material.004",
      "pbrMetallicRoughness": {
        "baseColorFactor": [
          0.153194,
          0.153194,
          0.153194,
          1.0
        ],
        "metallicFactor": 0.0,
        "roughnessFactor": 0.255906
      }
    },
    {
      "doubleSided": true,
      "name": "Material.005",
      "pbrMetallicRoughness": {
        "baseColorFactor": [
          0.213257,
          0.68461,
          0.8,
          1.0
        ],
        "metallicFactor": 0.0,
        "roughnessFactor": 0.5
      }
    },
    {
      "doubleSided": true,
      "name": "Material.006",
      "pbrMetallicRoughness": {
        "baseColorFactor": [
          0.157297,
          0.157297,
          0.157297,
          1.0
        ],
        "metallicFactor": 0.0,
        "roughnessFactor": 0.5
      }
    },
    {
      "doubleSided": true,
      "name": "Material.008",
      "pbrMetallicRoughness": {
        "baseColorFactor": [
          0.8,
          0.0,
          0.00377695,
          1.0
        ],
        "metallicFactor": 0.0,
        "roughnessFactor": 0.114173
      }
    }
  ],
  "meshes": [
    {
      "name": "Object_0",
      "primitives": [
        {
          "attributes": {
            "NORMAL": 1,
            "POSITION": 0,
            "TEXCOORD_0": 2
          },
          "indices": 3,
          "material": 0,
          "mode": 4
        }
      ]
    },
    {
      "name": "Object_1",
      "primitives": [
        {
          "attributes": {
            "NORMAL": 5,
            "POSITION": 4,
            "TEXCOORD_0": 6
          },
          "indices": 7,
          "material": 1,
          "mode": 4
        }
      ]
    },
    {
      "name": "Object_2",
      "primitives": [
        {
          "attributes": {
            "NORMAL": 9,
            "POSITION": 8,
            "TEXCOORD_0": 10
          },
          "indices": 11,
          "material": 2,
          "mode": 4
        }
      ]
    },
    {
      "name": "Object_3",
      "primitives": [
        {
          "attributes": {
            "NORMAL": 13,
            "POSITION": 12,
            "TEXCOORD_0": 14
          },
          "indices": 15,
          "material": 3,
          "mode": 4
        }
      ]
    },
    {
      "name": "Object_4",
      "primitives": [
        {
          "attributes": {
            "NORMAL": 17,
            "POSITION": 16,
            "TEXCOORD_0": 18
          },
          "indices": 19,
          "material": 4,
          "mode": 4
        }
      ]
    },
    {
      "name": "Object_5",
      "primitives": [
        {
          "attributes": {
            "NORMAL": 21,
            "POSITION": 20,
            "TEXCOORD_0": 22
          },
          "indices": 23,
          "material": 5,
          "mode": 4
        }
      ]
    },
    {
      "name": "Object_6",
      "primitives": [
        {
          "attributes": {
            "NORMAL": 25,
            "POSITION": 24,
            "TEXCOORD_0": 26
          },
          "indices": 27,
          "material": 6,
          "mode": 4
        }
      ]
    }
  ],
  "nodes": [
    {
      "children": [
        1
      ],
      "matrix": [
        2.220446049250313e-16,
        2.220446049250313e-16,
        -1.0,
        0.0,
        -1.0,
        4.930380657631324e-32,
        -2.220446049250313e-16,
        0.0,
        0.0,
        1.0,
        2.220446049250313e-16,
        0.0,
        0.1644919365644455,
        -5.185812808596032e-16,
        -0.16451753675937653,
        1.0
      ],
      "name": "Sketchfab_model"
    },
    {
      "children": [
        2
      ],
      "name": "root"
    },
    {
      "children": [
        3
      ],
      "matrix": [
        1.0,
        0.0,
        0.0,
        0.0,
        0.0,
        2.220446049250313e-16,
        1.0,
        0.0,
        0.0,
        -1.0,
        2.220446049250313e-16,
        0.0,
        0.0,
        0.0,
        0.0,
        1.0
      ],
      "name": "GLTF_SceneRootNode"
    },
    {
      "children": [
        4,
        5,
        6,
        7,
        8,
        9,
        10
      ],
      "matrix": [
        1.130434513092041,
        0.0,
        0.0,
        0.0,
        0.0,
        1.130434513092041,
        0.0,
        0.0,
        0.0,
        0.0,
        1.130434513092041,
        0.0,
        0.0,
        -0.5578535795211792,
        -0.006562982685863972,
        1.0
      ],
      "name": "Cube_0"
    },
    {
      "mesh": 0,
      "name": "Object_4"
    },
    {
      "mesh": 1,
      "name": "Object_5"
    },
    {
      "mesh": 2,
      "name": "Object_6"
    },
    {
      "mesh": 3,
      "name": "Object_7"
    },
    {
      "mesh": 4,
      "name": "Object_8"
    },
    {
      "mesh": 5,
      "name": "Object_9"
    },
    {
      "mesh": 6,
      "name": "Object_10"
    }
  ],
  "scene": 0,
  "scenes": [
    {
      "name": "Sketchfab_Scene",
      "nodes": [
        0
      ]
    }
  ]
}
